<svg xmlns="http://www.w3.org/2000/svg" xmlns:xlink="http://www.w3.org/1999/xlink" width="150" zoomAndPan="magnify" viewBox="0 0 112.5 38.999999" height="52" preserveAspectRatio="xMidYMid meet" version="1.0"><defs><g/><clipPath id="605f8b59f3"><path d="M 26.808594 2.265625 L 87 2.265625 L 87 23.171875 L 26.808594 23.171875 Z M 26.808594 2.265625 " clip-rule="nonzero"/></clipPath></defs><g clip-path="url(#605f8b59f3)"><path fill="#ea9d08" d="M 59.449219 20.550781 L 54.40625 20.550781 L 48.632812 14.9375 L 56.925781 6.144531 L 65.21875 14.941406 Z M 86.941406 21.359375 L 72.78125 7.582031 L 67.125 13.085938 L 56.925781 2.265625 L 46.726562 13.082031 L 41.074219 7.582031 L 26.917969 21.359375 L 27.769531 22.234375 L 27.863281 22.332031 L 28.773438 23.265625 L 41.074219 11.296875 L 53.378906 23.265625 L 53.382812 23.261719 L 60.472656 23.261719 L 60.476562 23.265625 L 60.484375 23.261719 L 72.78125 11.296875 L 85.082031 23.265625 L 86.011719 22.3125 L 86.089844 22.234375 L 86.941406 21.359375 " fill-opacity="1" fill-rule="nonzero"/></g><path fill="#ea9d08" d="M 38.800781 17.839844 L 38.800781 19.800781 L 40.832031 19.800781 L 40.832031 17.769531 L 38.800781 17.769531 L 38.800781 17.839844 " fill-opacity="1" fill-rule="nonzero"/><path fill="#ea9d08" d="M 41.320312 17.839844 L 41.320312 19.800781 L 43.347656 19.800781 L 43.347656 17.769531 L 41.320312 17.769531 L 41.320312 17.839844 " fill-opacity="1" fill-rule="nonzero"/><path fill="#ea9d08" d="M 38.800781 20.351562 L 38.800781 22.3125 L 40.832031 22.3125 L 40.832031 20.28125 L 38.800781 20.28125 L 38.800781 20.351562 " fill-opacity="1" fill-rule="nonzero"/><path fill="#ea9d08" d="M 41.320312 20.351562 L 41.320312 22.3125 L 43.347656 22.3125 L 43.347656 20.28125 L 41.320312 20.28125 L 41.320312 20.351562 " fill-opacity="1" fill-rule="nonzero"/><path fill="#ea9d08" d="M 70.507812 17.839844 L 70.507812 19.800781 L 72.535156 19.800781 L 72.535156 17.769531 L 70.507812 17.769531 L 70.507812 17.839844 " fill-opacity="1" fill-rule="nonzero"/><path fill="#ea9d08" d="M 73.027344 17.839844 L 73.027344 19.800781 L 75.054688 19.800781 L 75.054688 17.769531 L 73.027344 17.769531 L 73.027344 17.839844 " fill-opacity="1" fill-rule="nonzero"/><path fill="#ea9d08" d="M 70.507812 20.351562 L 70.507812 22.3125 L 72.535156 22.3125 L 72.535156 20.28125 L 70.507812 20.28125 L 70.507812 20.351562 " fill-opacity="1" fill-rule="nonzero"/><path fill="#ea9d08" d="M 73.027344 20.351562 L 73.027344 22.3125 L 75.054688 22.3125 L 75.054688 20.28125 L 73.027344 20.28125 L 73.027344 20.351562 " fill-opacity="1" fill-rule="nonzero"/><path fill="#ea9d08" d="M 54.652344 12.414062 L 54.652344 14.375 L 56.679688 14.375 L 56.679688 12.34375 L 54.652344 12.34375 L 54.652344 12.414062 " fill-opacity="1" fill-rule="nonzero"/><path fill="#ea9d08" d="M 59.199219 14.304688 L 59.199219 12.34375 L 57.171875 12.34375 L 57.171875 14.375 L 59.199219 14.375 L 59.199219 14.304688 " fill-opacity="1" fill-rule="nonzero"/><path fill="#ea9d08" d="M 54.652344 14.925781 L 54.652344 16.886719 L 56.679688 16.886719 L 56.679688 14.855469 L 54.652344 14.855469 L 54.652344 14.925781 " fill-opacity="1" fill-rule="nonzero"/><path fill="#ea9d08" d="M 59.199219 16.816406 L 59.199219 14.855469 L 57.171875 14.855469 L 57.171875 16.886719 L 59.199219 16.886719 L 59.199219 16.816406 " fill-opacity="1" fill-rule="nonzero"/><g fill="#ea9d08" fill-opacity="1"><g transform="translate(33.90607, 29.931153)"><g><path d="M 4.625 0 L 3.84375 0 L 3.84375 -1.921875 L 1.390625 -1.921875 L 1.390625 0 L 0.609375 0 L 0.609375 -4.625 L 1.390625 -4.625 L 1.390625 -2.625 L 3.84375 -2.625 L 3.84375 -4.625 L 4.625 -4.625 Z M 4.625 0 "/></g></g></g><g fill="#ea9d08" fill-opacity="1"><g transform="translate(40.503018, 29.931153)"><g><path d="M 0.921875 -3.96875 C 1.398438 -4.414062 1.984375 -4.640625 2.671875 -4.640625 C 3.367188 -4.640625 3.953125 -4.414062 4.421875 -3.96875 C 4.890625 -3.53125 5.125 -2.976562 5.125 -2.3125 C 5.125 -1.65625 4.890625 -1.097656 4.421875 -0.640625 C 3.953125 -0.191406 3.367188 0.03125 2.671875 0.03125 C 1.984375 0.03125 1.398438 -0.191406 0.921875 -0.640625 C 0.453125 -1.097656 0.21875 -1.65625 0.21875 -2.3125 C 0.21875 -2.976562 0.453125 -3.53125 0.921875 -3.96875 Z M 2.6875 -3.953125 C 2.226562 -3.953125 1.832031 -3.789062 1.5 -3.46875 C 1.175781 -3.15625 1.015625 -2.769531 1.015625 -2.3125 C 1.015625 -1.851562 1.175781 -1.460938 1.5 -1.140625 C 1.832031 -0.828125 2.222656 -0.671875 2.671875 -0.671875 C 3.128906 -0.671875 3.519531 -0.828125 3.84375 -1.140625 C 4.164062 -1.460938 4.328125 -1.851562 4.328125 -2.3125 C 4.328125 -2.769531 4.164062 -3.15625 3.84375 -3.46875 C 3.519531 -3.789062 3.132812 -3.953125 2.6875 -3.953125 Z M 2.6875 -3.953125 "/></g></g></g><g fill="#ea9d08" fill-opacity="1"><g transform="translate(47.225551, 29.931153)"><g><path d="M 5.5 0 L 4.78125 0 L 4.765625 -3.453125 L 3.3125 -0.484375 L 2.796875 -0.484375 L 1.34375 -3.453125 L 1.34375 0 L 0.609375 0 L 0.609375 -4.625 L 1.53125 -4.625 L 3.0625 -1.546875 L 4.578125 -4.625 L 5.5 -4.625 Z M 5.5 0 "/></g></g></g><g fill="#ea9d08" fill-opacity="1"><g transform="translate(54.708209, 29.931153)"><g><path d="M 3.90625 -3.921875 L 1.390625 -3.921875 L 1.390625 -2.671875 L 3.640625 -2.671875 L 3.640625 -1.96875 L 1.390625 -1.96875 L 1.390625 -0.703125 L 3.984375 -0.703125 L 3.984375 0 L 0.609375 0 L 0.609375 -4.625 L 3.90625 -4.625 Z M 3.90625 -3.921875 "/></g></g></g><g fill="#ea9d08" fill-opacity="1"><g transform="translate(60.412835, 29.931153)"><g><path d="M 4.625 0 L 3.84375 0 L 3.84375 -1.921875 L 1.390625 -1.921875 L 1.390625 0 L 0.609375 0 L 0.609375 -4.625 L 1.390625 -4.625 L 1.390625 -2.625 L 3.84375 -2.625 L 3.84375 -4.625 L 4.625 -4.625 Z M 4.625 0 "/></g></g></g><g fill="#ea9d08" fill-opacity="1"><g transform="translate(67.009784, 29.931153)"><g><path d="M 4.546875 -4.625 L 4.546875 -1.921875 C 4.546875 -1.316406 4.363281 -0.835938 4 -0.484375 C 3.644531 -0.140625 3.15625 0.03125 2.53125 0.03125 C 1.90625 0.03125 1.410156 -0.140625 1.046875 -0.484375 C 0.691406 -0.835938 0.515625 -1.316406 0.515625 -1.921875 L 0.515625 -4.625 L 1.296875 -4.625 L 1.296875 -1.921875 C 1.296875 -1.523438 1.40625 -1.21875 1.625 -1 C 1.851562 -0.78125 2.15625 -0.671875 2.53125 -0.671875 C 2.914062 -0.671875 3.21875 -0.78125 3.4375 -1 C 3.65625 -1.21875 3.765625 -1.523438 3.765625 -1.921875 L 3.765625 -4.625 Z M 4.546875 -4.625 "/></g></g></g><g fill="#ea9d08" fill-opacity="1"><g transform="translate(73.428268, 29.931153)"><g><path d="M 0.609375 -4.625 L 2.625 -4.625 C 3.101562 -4.625 3.476562 -4.519531 3.75 -4.3125 C 4.03125 -4.113281 4.171875 -3.832031 4.171875 -3.46875 C 4.171875 -3.207031 4.097656 -2.984375 3.953125 -2.796875 C 3.804688 -2.617188 3.609375 -2.5 3.359375 -2.4375 C 3.660156 -2.382812 3.898438 -2.253906 4.078125 -2.046875 C 4.253906 -1.835938 4.34375 -1.578125 4.34375 -1.265625 C 4.34375 -0.867188 4.191406 -0.554688 3.890625 -0.328125 C 3.597656 -0.109375 3.1875 0 2.65625 0 L 0.609375 0 Z M 1.390625 -3.9375 L 1.390625 -2.703125 L 2.578125 -2.703125 C 2.828125 -2.703125 3.019531 -2.757812 3.15625 -2.875 C 3.300781 -2.988281 3.375 -3.140625 3.375 -3.328125 C 3.375 -3.523438 3.300781 -3.675781 3.15625 -3.78125 C 3.019531 -3.882812 2.828125 -3.9375 2.578125 -3.9375 Z M 1.390625 -2.015625 L 1.390625 -0.6875 L 2.578125 -0.6875 C 2.890625 -0.6875 3.128906 -0.742188 3.296875 -0.859375 C 3.460938 -0.984375 3.546875 -1.15625 3.546875 -1.375 C 3.546875 -1.570312 3.457031 -1.726562 3.28125 -1.84375 C 3.113281 -1.957031 2.878906 -2.015625 2.578125 -2.015625 Z M 1.390625 -2.015625 "/></g></g></g><g fill="#ea9d08" fill-opacity="1"><g transform="translate(41.40089, 35.652112)"><g><path d="M 0.421875 -3.1875 L 1.6875 -3.1875 C 2.09375 -3.1875 2.40625 -3.09375 2.625 -2.90625 C 2.84375 -2.71875 2.953125 -2.453125 2.953125 -2.109375 C 2.953125 -1.742188 2.84375 -1.460938 2.625 -1.265625 C 2.40625 -1.066406 2.09375 -0.96875 1.6875 -0.96875 L 0.953125 -0.96875 L 0.953125 0 L 0.421875 0 Z M 0.953125 -2.703125 L 0.953125 -1.453125 L 1.671875 -1.453125 C 2.179688 -1.453125 2.4375 -1.664062 2.4375 -2.09375 C 2.4375 -2.5 2.179688 -2.703125 1.671875 -2.703125 Z M 0.953125 -2.703125 "/></g></g></g><g fill="#ea9d08" fill-opacity="1"><g transform="translate(45.074801, 35.652112)"><g><path d="M 2.453125 0 L 1.859375 -0.96875 C 1.828125 -0.96875 1.78125 -0.96875 1.71875 -0.96875 L 0.953125 -0.96875 L 0.953125 0 L 0.421875 0 L 0.421875 -3.1875 L 1.71875 -3.1875 C 2.125 -3.1875 2.4375 -3.09375 2.65625 -2.90625 C 2.882812 -2.71875 3 -2.453125 3 -2.109375 C 3 -1.847656 2.941406 -1.628906 2.828125 -1.453125 C 2.710938 -1.273438 2.550781 -1.144531 2.34375 -1.0625 L 3.0625 0 Z M 0.953125 -1.453125 L 1.71875 -1.453125 C 2.226562 -1.453125 2.484375 -1.664062 2.484375 -2.09375 C 2.484375 -2.5 2.226562 -2.703125 1.71875 -2.703125 L 0.953125 -2.703125 Z M 0.953125 -1.453125 "/></g></g></g><g fill="#ea9d08" fill-opacity="1"><g transform="translate(48.976608, 35.652112)"><g><path d="M 0.640625 -2.734375 C 0.960938 -3.046875 1.363281 -3.203125 1.84375 -3.203125 C 2.320312 -3.203125 2.722656 -3.046875 3.046875 -2.734375 C 3.378906 -2.429688 3.546875 -2.050781 3.546875 -1.59375 C 3.546875 -1.132812 3.378906 -0.75 3.046875 -0.4375 C 2.722656 -0.132812 2.320312 0.015625 1.84375 0.015625 C 1.363281 0.015625 0.960938 -0.132812 0.640625 -0.4375 C 0.316406 -0.75 0.15625 -1.132812 0.15625 -1.59375 C 0.15625 -2.050781 0.316406 -2.429688 0.640625 -2.734375 Z M 1.859375 -2.71875 C 1.535156 -2.71875 1.257812 -2.609375 1.03125 -2.390625 C 0.8125 -2.179688 0.703125 -1.914062 0.703125 -1.59375 C 0.703125 -1.28125 0.8125 -1.007812 1.03125 -0.78125 C 1.257812 -0.5625 1.53125 -0.453125 1.84375 -0.453125 C 2.164062 -0.453125 2.4375 -0.5625 2.65625 -0.78125 C 2.875 -1.007812 2.984375 -1.28125 2.984375 -1.59375 C 2.984375 -1.914062 2.875 -2.179688 2.65625 -2.390625 C 2.4375 -2.609375 2.171875 -2.71875 1.859375 -2.71875 Z M 1.859375 -2.71875 "/></g></g></g><g fill="#ea9d08" fill-opacity="1"><g transform="translate(53.274951, 35.652112)"><g><path d="M 0.421875 -3.1875 L 1.6875 -3.1875 C 2.09375 -3.1875 2.40625 -3.09375 2.625 -2.90625 C 2.84375 -2.71875 2.953125 -2.453125 2.953125 -2.109375 C 2.953125 -1.742188 2.84375 -1.460938 2.625 -1.265625 C 2.40625 -1.066406 2.09375 -0.96875 1.6875 -0.96875 L 0.953125 -0.96875 L 0.953125 0 L 0.421875 0 Z M 0.953125 -2.703125 L 0.953125 -1.453125 L 1.671875 -1.453125 C 2.179688 -1.453125 2.4375 -1.664062 2.4375 -2.09375 C 2.4375 -2.5 2.179688 -2.703125 1.671875 -2.703125 Z M 0.953125 -2.703125 "/></g></g></g><g fill="#ea9d08" fill-opacity="1"><g transform="translate(56.948861, 35.652112)"><g><path d="M 2.703125 -2.703125 L 0.953125 -2.703125 L 0.953125 -1.84375 L 2.515625 -1.84375 L 2.515625 -1.359375 L 0.953125 -1.359375 L 0.953125 -0.484375 L 2.75 -0.484375 L 2.75 0 L 0.421875 0 L 0.421875 -3.1875 L 2.703125 -3.1875 Z M 2.703125 -2.703125 "/></g></g></g><g fill="#ea9d08" fill-opacity="1"><g transform="translate(60.545288, 35.652112)"><g><path d="M 2.453125 0 L 1.859375 -0.96875 C 1.828125 -0.96875 1.78125 -0.96875 1.71875 -0.96875 L 0.953125 -0.96875 L 0.953125 0 L 0.421875 0 L 0.421875 -3.1875 L 1.71875 -3.1875 C 2.125 -3.1875 2.4375 -3.09375 2.65625 -2.90625 C 2.882812 -2.71875 3 -2.453125 3 -2.109375 C 3 -1.847656 2.941406 -1.628906 2.828125 -1.453125 C 2.710938 -1.273438 2.550781 -1.144531 2.34375 -1.0625 L 3.0625 0 Z M 0.953125 -1.453125 L 1.71875 -1.453125 C 2.226562 -1.453125 2.484375 -1.664062 2.484375 -2.09375 C 2.484375 -2.5 2.226562 -2.703125 1.71875 -2.703125 L 0.953125 -2.703125 Z M 0.953125 -1.453125 "/></g></g></g><g fill="#ea9d08" fill-opacity="1"><g transform="translate(64.447096, 35.652112)"><g><path d="M 2.59375 -2.703125 L 1.59375 -2.703125 L 1.59375 0 L 1.046875 0 L 1.046875 -2.703125 L 0.046875 -2.703125 L 0.046875 -3.1875 L 2.59375 -3.1875 Z M 2.59375 -2.703125 "/></g></g></g><g fill="#ea9d08" fill-opacity="1"><g transform="translate(67.692565, 35.652112)"><g><path d="M 1.734375 -1.0625 L 1.734375 0 L 1.203125 0 L 1.203125 -1.046875 L 0 -3.1875 L 0.546875 -3.1875 L 1.453125 -1.640625 L 2.359375 -3.1875 L 2.90625 -3.1875 Z M 1.734375 -1.0625 "/></g></g></g></svg>